<svg width="62" height="62" viewBox="0 0 62 62" fill="none" xmlns="http://www.w3.org/2000/svg">
<rect width="62" height="62" rx="31" fill="#F19920"/>
<path d="M31.5417 21.2498H26.45C24.6298 21.2498 23.7197 21.2498 23.0245 21.6041C22.413 21.9157 21.9158 22.4128 21.6042 23.0244C21.25 23.7196 21.25 24.6297 21.25 26.4498V35.5498C21.25 37.37 21.25 38.2801 21.6042 38.9753C21.9158 39.5868 22.413 40.084 23.0245 40.3956C23.7197 40.7498 24.6298 40.7498 26.45 40.7498H36.4167C37.4241 40.7498 37.9279 40.7498 38.3412 40.6391C39.4627 40.3386 40.3387 39.4625 40.6393 38.341C40.75 37.9277 40.75 37.424 40.75 36.4165M38.5833 26.6665V20.1665M35.3333 23.4165H41.8333M29.375 27.2082C29.375 28.4048 28.4049 29.3748 27.2083 29.3748C26.0117 29.3748 25.0417 28.4048 25.0417 27.2082C25.0417 26.0116 26.0117 25.0415 27.2083 25.0415C28.4049 25.0415 29.375 26.0116 29.375 27.2082ZM34.2392 30.9112L25.0754 39.2419C24.56 39.7105 24.3023 39.9448 24.2795 40.1477C24.2597 40.3236 24.3272 40.4981 24.4601 40.615C24.6135 40.7498 24.9618 40.7498 25.6584 40.7498H35.8273C37.3864 40.7498 38.166 40.7498 38.7782 40.4879C39.5469 40.1591 40.1593 39.5467 40.4881 38.7781C40.75 38.1658 40.75 37.3862 40.75 35.8271C40.75 35.3026 40.75 35.0403 40.6927 34.796C40.6206 34.489 40.4824 34.2015 40.2877 33.9534C40.1328 33.7561 39.928 33.5922 39.5183 33.2645L36.488 30.8402C36.078 30.5122 35.873 30.3482 35.6473 30.2904C35.4483 30.2394 35.2389 30.246 35.0436 30.3094C34.8219 30.3814 34.6277 30.558 34.2392 30.9112Z" stroke="white" stroke-width="2.16667" stroke-linecap="round" stroke-linejoin="round"/>
</svg>
