<svg width="20" height="20" viewBox="0 0 20 20" fill="none" xmlns="http://www.w3.org/2000/svg">
<path d="M13.3333 3.33398C15.1459 3.34407 16.1274 3.42445 16.7678 4.06477C17.5 4.797 17.5 5.97551 17.5 8.33254V13.3325C17.5 15.6896 17.5 16.8681 16.7678 17.6003C16.0355 18.3325 14.857 18.3325 12.5 18.3325H7.5C5.14298 18.3325 3.96447 18.3325 3.23223 17.6003C2.5 16.8681 2.5 15.6896 2.5 13.3325V8.33254C2.5 5.97551 2.5 4.797 3.23223 4.06477C3.87255 3.42445 4.85414 3.34407 6.66667 3.33398" stroke="#454545" stroke-width="1.25"/>
<path d="M7.5 11.168L8.92857 12.5013L12.5 9.16797" stroke="#454545" stroke-width="1.25" stroke-linecap="round" stroke-linejoin="round"/>
<path d="M6.66797 2.91797C6.66797 2.22761 7.22761 1.66797 7.91797 1.66797H12.0846C12.775 1.66797 13.3346 2.22761 13.3346 2.91797V3.7513C13.3346 4.44166 12.775 5.0013 12.0846 5.0013H7.91797C7.22761 5.0013 6.66797 4.44166 6.66797 3.7513V2.91797Z" stroke="#454545" stroke-width="1.25"/>
</svg>
