<svg width="20" height="20" viewBox="0 0 20 20" fill="none" xmlns="http://www.w3.org/2000/svg">
<path d="M1.66797 9.99967C1.66797 6.85698 1.66797 5.28563 2.64428 4.30932C3.62059 3.33301 5.19194 3.33301 8.33464 3.33301H11.668C14.8107 3.33301 16.382 3.33301 17.3583 4.30932C18.3346 5.28563 18.3346 6.85698 18.3346 9.99967V11.6663C18.3346 14.809 18.3346 16.3804 17.3583 17.3567C16.382 18.333 14.8107 18.333 11.668 18.333H8.33464C5.19194 18.333 3.62059 18.333 2.64428 17.3567C1.66797 16.3804 1.66797 14.809 1.66797 11.6663V9.99967Z" stroke="#242424" stroke-width="1.5"/>
<path d="M5.83203 3.33301V2.08301" stroke="#242424" stroke-width="1.5" stroke-linecap="round"/>
<path d="M14.168 3.33301V2.08301" stroke="#242424" stroke-width="1.5" stroke-linecap="round"/>
<path d="M2.08203 7.5H17.9154" stroke="#242424" stroke-width="1.5" stroke-linecap="round"/>
<path d="M14.9987 14.1667C14.9987 14.6269 14.6256 15 14.1654 15C13.7051 15 13.332 14.6269 13.332 14.1667C13.332 13.7064 13.7051 13.3333 14.1654 13.3333C14.6256 13.3333 14.9987 13.7064 14.9987 14.1667Z" fill="#242424"/>
<path d="M14.9987 10.8333C14.9987 11.2936 14.6256 11.6667 14.1654 11.6667C13.7051 11.6667 13.332 11.2936 13.332 10.8333C13.332 10.3731 13.7051 10 14.1654 10C14.6256 10 14.9987 10.3731 14.9987 10.8333Z" fill="#242424"/>
<path d="M10.8346 14.1667C10.8346 14.6269 10.4615 15 10.0013 15C9.54106 15 9.16797 14.6269 9.16797 14.1667C9.16797 13.7064 9.54106 13.3333 10.0013 13.3333C10.4615 13.3333 10.8346 13.7064 10.8346 14.1667Z" fill="#242424"/>
<path d="M10.8346 10.8333C10.8346 11.2936 10.4615 11.6667 10.0013 11.6667C9.54106 11.6667 9.16797 11.2936 9.16797 10.8333C9.16797 10.3731 9.54106 10 10.0013 10C10.4615 10 10.8346 10.3731 10.8346 10.8333Z" fill="#242424"/>
<path d="M6.66667 14.1667C6.66667 14.6269 6.29357 15 5.83333 15C5.3731 15 5 14.6269 5 14.1667C5 13.7064 5.3731 13.3333 5.83333 13.3333C6.29357 13.3333 6.66667 13.7064 6.66667 14.1667Z" fill="#242424"/>
<path d="M6.66667 10.8333C6.66667 11.2936 6.29357 11.6667 5.83333 11.6667C5.3731 11.6667 5 11.2936 5 10.8333C5 10.3731 5.3731 10 5.83333 10C6.29357 10 6.66667 10.3731 6.66667 10.8333Z" fill="#242424"/>
</svg>
