<svg width="34" height="34" viewBox="0 0 34 34" fill="none" xmlns="http://www.w3.org/2000/svg">
<rect y="-0.00195312" width="34" height="34" rx="17" fill="#F19920" fill-opacity="0.1"/>
<path d="M24.8629 14.498H22.9335L22.3972 13.198C21.8461 11.8615 20.531 10.998 19.0463 10.998H14.9535C13.4691 10.998 12.1537 11.8615 11.6023 13.198L11.066 14.498H9.13692C8.88523 14.498 8.70058 14.7274 8.76181 14.964L8.95517 15.714C8.99803 15.8809 9.15272 15.998 9.33028 15.998H9.97707C9.54427 16.3646 9.26551 16.8974 9.26551 17.498V18.998C9.26551 19.5018 9.46402 19.9565 9.78113 20.3084V21.998C9.78113 22.5502 10.2429 22.998 10.8124 22.998H11.8436C12.4131 22.998 12.8749 22.5502 12.8749 21.998V20.998H21.1249V21.998C21.1249 22.5502 21.5867 22.998 22.1561 22.998H23.1874C23.7568 22.998 24.2187 22.5502 24.2187 21.998V20.3084C24.5358 19.9568 24.7343 19.5021 24.7343 18.998V17.498C24.7343 16.8974 24.4555 16.3646 24.023 15.998H24.6698C24.8474 15.998 25.0021 15.8809 25.0449 15.714L25.2383 14.964C25.2992 14.7274 25.1146 14.498 24.8629 14.498ZM13.5172 13.9409C13.7521 13.3715 14.3209 12.998 14.9535 12.998H19.0463C19.6789 12.998 20.2477 13.3715 20.4826 13.9409L21.1249 15.498H12.8749L13.5172 13.9409ZM11.8436 18.9918C11.2249 18.9918 10.8124 18.593 10.8124 17.9949C10.8124 17.3968 11.2249 16.998 11.8436 16.998C12.4624 16.998 13.3905 17.8952 13.3905 18.4934C13.3905 19.0915 12.4624 18.9918 11.8436 18.9918ZM22.1561 18.9918C21.5374 18.9918 20.6093 19.0915 20.6093 18.4934C20.6093 17.8952 21.5374 16.998 22.1561 16.998C22.7749 16.998 23.1874 17.3968 23.1874 17.9949C23.1874 18.593 22.7749 18.9918 22.1561 18.9918Z" fill="#F19920"/>
</svg>
