<svg width="40" height="41" viewBox="0 0 40 41" fill="none" xmlns="http://www.w3.org/2000/svg">
<rect y="0.5" width="40" height="40" rx="20" fill="white"/>
<path d="M13.1173 27.6288C14.117 28.8333 15.9776 28.8333 19.6987 28.8333H20.2997C24.0209 28.8333 25.8815 28.8333 26.8812 27.6288M13.1173 27.6288C12.1176 26.4242 12.4605 24.5955 13.1462 20.9381C13.6339 18.3371 13.8778 17.0366 14.8035 16.2683M13.1173 27.6288C13.1173 27.6288 13.1173 27.6288 13.1173 27.6288ZM26.8812 27.6288C27.8809 26.4242 27.538 24.5955 26.8522 20.9381C26.3645 18.3371 26.1207 17.0366 25.1949 16.2683M26.8812 27.6288C26.8812 27.6288 26.8812 27.6288 26.8812 27.6288ZM25.1949 16.2683C24.2692 15.5 22.946 15.5 20.2997 15.5H19.6987C17.0524 15.5 15.7293 15.5 14.8035 16.2683M25.1949 16.2683C25.1949 16.2683 25.1949 16.2683 25.1949 16.2683ZM14.8035 16.2683C14.8035 16.2683 14.8035 16.2683 14.8035 16.2683Z" stroke="#454545" stroke-width="1.5"/>
<path d="M17.5 15.4998V14.6665C17.5 13.2858 18.6193 12.1665 20 12.1665C21.3807 12.1665 22.5 13.2858 22.5 14.6665V15.4998" stroke="#454545" stroke-width="1.5" stroke-linecap="round"/>
</svg>
