<svg width="40" height="41" viewBox="0 0 40 41" fill="none" xmlns="http://www.w3.org/2000/svg">
<rect y="0.5" width="40" height="40" rx="20" fill="white"/>
<path d="M20 15.5L20 22.5M20 22.5L23 19.5M20 22.5L17 19.5" stroke="#454545" stroke-width="1.5" stroke-linecap="round" stroke-linejoin="round"/>
<path d="M24 25.5H20H16" stroke="#454545" stroke-width="1.5" stroke-linecap="round"/>
<path d="M10 20.5C10 15.786 10 13.4289 11.4645 11.9645C12.9289 10.5 15.286 10.5 20 10.5C24.714 10.5 27.0711 10.5 28.5355 11.9645C30 13.4289 30 15.786 30 20.5C30 25.214 30 27.5711 28.5355 29.0355C27.0711 30.5 24.714 30.5 20 30.5C15.286 30.5 12.9289 30.5 11.4645 29.0355C10 27.5711 10 25.214 10 20.5Z" stroke="#454545" stroke-width="1.5"/>
</svg>
