<svg width="25" height="24" viewBox="0 0 25 24" fill="none" xmlns="http://www.w3.org/2000/svg">
<path d="M2.66797 12.2039C2.66797 9.91549 2.66797 8.77128 3.18717 7.82274C3.70637 6.87421 4.65491 6.28551 6.552 5.10813L8.552 3.86687C10.5574 2.62229 11.56 2 12.668 2C13.7759 2 14.7786 2.62229 16.7839 3.86687L18.7839 5.10812C20.681 6.28551 21.6296 6.87421 22.1488 7.82274C22.668 8.77128 22.668 9.91549 22.668 12.2039V13.725C22.668 17.6258 22.668 19.5763 21.4964 20.7881C20.3248 22 18.4392 22 14.668 22H10.668C6.89673 22 5.01111 22 3.83954 20.7881C2.66797 19.5763 2.66797 17.6258 2.66797 13.725V12.2039Z" stroke="#454545" stroke-width="1.5"/>
<path d="M12.668 15L12.668 18" stroke="#454545" stroke-width="1.5" stroke-linecap="round"/>
</svg>
