<svg width="25" height="24" viewBox="0 0 25 24" fill="none" xmlns="http://www.w3.org/2000/svg">
<path fill-rule="evenodd" clip-rule="evenodd" d="M3.18717 7.82274C2.66797 8.77128 2.66797 9.91549 2.66797 12.2039V13.725C2.66797 17.6258 2.66797 19.5763 3.83954 20.7881C5.01111 22 6.89673 22 10.668 22H14.668C18.4392 22 20.3248 22 21.4964 20.7881C22.668 19.5763 22.668 17.6258 22.668 13.725V12.2039C22.668 9.91549 22.668 8.77128 22.1488 7.82274C21.6296 6.87421 20.681 6.28551 18.7839 5.10812L16.7839 3.86687C14.7786 2.62229 13.7759 2 12.668 2C11.56 2 10.5574 2.62229 8.552 3.86687L6.552 5.10813C4.65491 6.28551 3.70637 6.87421 3.18717 7.82274ZM11.918 18C11.918 18.4142 12.2538 18.75 12.668 18.75C13.0822 18.75 13.418 18.4142 13.418 18V15C13.418 14.5858 13.0822 14.25 12.668 14.25C12.2538 14.25 11.918 14.5858 11.918 15V18Z" fill="#F19920"/>
</svg>
