<svg width="16" height="16" viewBox="0 0 16 16" fill="none" xmlns="http://www.w3.org/2000/svg">
<path fill-rule="evenodd" clip-rule="evenodd" d="M7.9987 1.33301C4.856 1.33301 3.28465 1.33301 2.30834 2.30932C1.33203 3.28563 1.33203 4.85698 1.33203 7.99967C1.33203 11.1424 1.33203 12.7137 2.30834 13.69C3.28465 14.6663 4.856 14.6663 7.9987 14.6663C11.1414 14.6663 12.7127 14.6663 13.6891 13.69C14.6654 12.7137 14.6654 11.1424 14.6654 7.99967C14.6654 4.85698 14.6654 3.28563 13.6891 2.30932C12.7127 1.33301 11.1414 1.33301 7.9987 1.33301ZM7.9987 4.16634C8.27484 4.16634 8.4987 4.3902 8.4987 4.66634V8.66634C8.4987 8.94248 8.27484 9.16634 7.9987 9.16634C7.72256 9.16634 7.4987 8.94248 7.4987 8.66634V4.66634C7.4987 4.3902 7.72256 4.16634 7.9987 4.16634ZM7.9987 11.333C8.36689 11.333 8.66536 11.0345 8.66536 10.6663C8.66536 10.2982 8.36689 9.99967 7.9987 9.99967C7.63051 9.99967 7.33203 10.2982 7.33203 10.6663C7.33203 11.0345 7.63051 11.333 7.9987 11.333Z" fill="#FF0000"/>
</svg>
