<svg width="16" height="16" viewBox="0 0 16 16" fill="none" xmlns="http://www.w3.org/2000/svg">
<path fill-rule="evenodd" clip-rule="evenodd" d="M7.9987 14.6663C4.856 14.6663 3.28465 14.6663 2.30834 13.69C1.33203 12.7137 1.33203 11.1424 1.33203 7.99967C1.33203 4.85698 1.33203 3.28563 2.30834 2.30932C3.28465 1.33301 4.856 1.33301 7.9987 1.33301C11.1414 1.33301 12.7127 1.33301 13.6891 2.30932C14.6654 3.28563 14.6654 4.85698 14.6654 7.99967C14.6654 11.1424 14.6654 12.7137 13.6891 13.69C12.7127 14.6663 11.1414 14.6663 7.9987 14.6663ZM10.6856 5.97945C10.8808 6.17472 10.8808 6.4913 10.6856 6.68656L7.35225 10.0199C7.15699 10.2152 6.84041 10.2152 6.64514 10.0199L5.31181 8.68656C5.11655 8.4913 5.11655 8.17472 5.31181 7.97945C5.50707 7.78419 5.82366 7.78419 6.01892 7.97945L6.9987 8.95923L9.97848 5.97945C10.1737 5.78419 10.4903 5.78419 10.6856 5.97945Z" fill="#008000"/>
</svg>
