<svg width="58" height="58" viewBox="0 0 58 58" fill="none" xmlns="http://www.w3.org/2000/svg">
<rect x="0.5" y="0.5" width="56.2344" height="57.0007" rx="11.5" fill="white"/>
<rect x="0.5" y="0.5" width="56.2344" height="57.0007" rx="11.5" stroke="#D1D1D1"/>
<path d="M29.5142 15.2056C30.5305 16.7216 30.4311 18.4607 29.8305 19.5229C29.6242 19.8912 29.2192 21.0954 29.8917 21.7938C30.3639 22.2813 32.2574 22.0536 31.102 20.1128C30.535 19.1591 32.6134 17.8204 30.6435 15.632C33.4051 16.6696 32.1473 19.2432 32.9604 20.1907C33.81 21.181 33.7015 22.6542 33.3714 23.5925C33.1357 24.2898 32.7345 24.9195 32.2022 25.4279C31.6699 25.9362 31.0223 26.308 30.315 26.5115C29.3502 26.7699 28.3398 26.8091 27.3578 26.6261C25.524 26.2914 23.9804 25.0046 23.6901 22.1591C23.4379 20.5514 24.5337 19.7292 24.4893 18.8229C24.416 17.1877 26.7236 15.7802 26.7236 15.7802C24.931 17.9197 26.366 18.8932 26.2652 19.8759C26.1994 20.5376 25.4292 21.5753 26.6411 21.8626C27.5749 22.0857 28.3222 20.6308 27.4893 19.6405C26.8 18.8214 27.2967 17.6905 27.9691 16.6605C29.123 14.8999 26.5127 13.4802 29.6731 12.1797C29.6731 12.1797 28.0517 13.0217 29.5142 15.2056Z" fill="#F19920"/>
<path d="M38.604 23.6957C38.5493 23.6685 38.4869 23.661 38.4273 23.6746C38.3677 23.6882 38.3147 23.722 38.2773 23.7703C38.2398 23.8185 38.2202 23.8783 38.2218 23.9393C38.2234 24.0004 38.2462 24.059 38.2861 24.1053C38.6029 24.4197 38.789 24.8422 38.8072 25.2881C38.8072 27.3512 34.2439 29.0231 28.6155 29.0231C22.987 29.0231 18.4237 27.3512 18.4237 25.2881C18.4413 24.8421 18.6275 24.4193 18.9448 24.1053C18.9847 24.059 19.0075 24.0004 19.0091 23.9393C19.0107 23.8783 18.9911 23.8185 18.9536 23.7703C18.9162 23.722 18.8632 23.6882 18.8036 23.6746C18.744 23.661 18.6816 23.6685 18.6269 23.6957C17.1262 24.4705 16.2383 25.4241 16.2383 26.4572C16.2383 28.7007 20.4226 31.1367 26.0022 31.7373C26.337 31.772 26.6471 31.9293 26.8728 32.1791C27.0986 32.4288 27.2239 32.7531 27.2248 33.0898V45.7833C27.6832 45.8077 28.1417 45.8215 28.6155 45.8215C29.0892 45.8215 29.5492 45.8077 30.0061 45.7833V33.0898C30.007 32.7531 30.1323 32.4288 30.3581 32.1791C30.5838 31.9293 30.8939 31.772 31.2287 31.7373C36.8098 31.1367 40.9942 28.7007 40.9942 26.4572C40.9911 25.4241 40.1047 24.4705 38.604 23.6957Z" fill="#F19920"/>
<path d="M40.9935 32.5484C40.9935 31.6865 40.3746 30.8781 39.2957 30.1842C39.2151 30.1323 39.1196 30.1081 39.024 30.1156C38.9284 30.123 38.8378 30.1616 38.7662 30.2254C38.6946 30.2892 38.6459 30.3747 38.6275 30.4689C38.6091 30.563 38.6221 30.6606 38.6645 30.7466C38.7591 30.9442 38.8086 31.1603 38.8097 31.3793C38.8097 32.9305 36.2346 34.26 32.5653 34.8255C32.2426 34.8734 31.9478 35.0355 31.7344 35.2822C31.521 35.529 31.4032 35.8441 31.4023 36.1703V37.8101C32.3397 37.705 33.2697 37.5417 34.1868 37.3211V45.1426C34.829 44.9817 35.4626 44.7879 36.0849 44.5619C36.3448 44.4653 36.5688 44.2913 36.7268 44.0634C36.8847 43.8355 36.969 43.5646 36.9682 43.2873V36.4042C39.4424 35.3527 40.9935 33.9147 40.9935 32.5484Z" fill="#F19920"/>
<path d="M25.831 36.1703C25.8301 35.8439 25.7121 35.5286 25.4984 35.2818C25.2847 35.035 24.9895 34.8731 24.6665 34.8255C20.9987 34.26 18.4237 32.9305 18.4237 31.3793C18.4247 31.1603 18.4743 30.9442 18.5688 30.7466C18.6112 30.6606 18.6242 30.563 18.6058 30.4689C18.5875 30.3747 18.5388 30.2892 18.4671 30.2254C18.3955 30.1616 18.305 30.123 18.2093 30.1156C18.1137 30.1081 18.0183 30.1323 17.9377 30.1842C16.8572 30.8781 16.2383 31.6865 16.2383 32.5484C16.2383 33.9147 17.7894 35.3512 20.2621 36.4026V43.2797C20.2612 43.5572 20.3456 43.8283 20.5039 44.0563C20.6621 44.2842 20.8866 44.4581 21.147 44.5542C21.7674 44.7815 22.3995 44.9759 23.0405 45.1365V37.3211C23.9579 37.5439 24.8884 37.7092 25.8264 37.8162L25.831 36.1703Z" fill="#F19920"/>
</svg>
