<svg width="28" height="28" viewBox="0 0 28 28" fill="none" xmlns="http://www.w3.org/2000/svg">
<path d="M2.33203 19.7167C2.33203 18.1891 2.33203 17.4253 2.67587 16.8642C2.86827 16.5502 3.13224 16.2862 3.4462 16.0938C4.0073 15.75 4.7711 15.75 6.2987 15.75H7.58203C9.78192 15.75 10.8819 15.75 11.5653 16.4334C12.2487 17.1168 12.2487 18.2168 12.2487 20.4167V21.7C12.2487 23.2276 12.2487 23.9914 11.9049 24.5525C11.7125 24.8665 11.4485 25.1304 11.1345 25.3228C10.5734 25.6667 9.80963 25.6667 8.28203 25.6667C5.99063 25.6667 4.84493 25.6667 4.00329 25.1509C3.53234 24.8623 3.13639 24.4664 2.84779 23.9954C2.33203 23.1538 2.33203 22.0081 2.33203 19.7167Z" stroke="white" stroke-width="1.75"/>
<path d="M15.75 6.29968C15.75 4.77207 15.75 4.00827 16.0938 3.44718C16.2862 3.13322 16.5502 2.86924 16.8642 2.67685C17.4253 2.33301 18.1891 2.33301 19.7167 2.33301C22.0081 2.33301 23.1538 2.33301 23.9954 2.84877C24.4664 3.13736 24.8623 3.53332 25.1509 4.00426C25.6667 4.84591 25.6667 5.99161 25.6667 8.28301C25.6667 9.81061 25.6667 10.5744 25.3228 11.1355C25.1304 11.4495 24.8665 11.7134 24.5525 11.9058C23.9914 12.2497 23.2276 12.2497 21.7 12.2497H20.4167C18.2168 12.2497 17.1168 12.2497 16.4334 11.5663C15.75 10.8828 15.75 9.7829 15.75 7.58301V6.29968Z" stroke="white" stroke-width="1.75"/>
<path d="M19.25 7.29134C19.25 6.69003 19.25 6.38938 19.4006 6.17709C19.4538 6.10219 19.5192 6.03678 19.5941 5.98363C19.8064 5.83301 20.107 5.83301 20.7083 5.83301C21.3096 5.83301 21.6103 5.83301 21.8226 5.98363C21.8975 6.03678 21.9629 6.10219 22.016 6.17709C22.1667 6.38938 22.1667 6.69003 22.1667 7.29134C22.1667 7.89265 22.1667 8.1933 22.016 8.40559C21.9629 8.4805 21.8975 8.5459 21.8226 8.59905C21.6103 8.74967 21.3096 8.74967 20.7083 8.74967C20.107 8.74967 19.8064 8.74967 19.5941 8.59905C19.5192 8.5459 19.4538 8.4805 19.4006 8.40559C19.25 8.1933 19.25 7.89265 19.25 7.29134Z" fill="white"/>
<path d="M14.875 25.6667C14.875 26.1499 15.2668 26.5417 15.75 26.5417C16.2332 26.5417 16.625 26.1499 16.625 25.6667H15.75H14.875ZM16.787 16.1432L17.2731 16.8708L17.2731 16.8708L16.787 16.1432ZM16.1432 16.787L15.4157 16.3009L15.4157 16.3009L16.1432 16.787ZM22.1667 15.75V14.875H19.8333V15.75V16.625H22.1667V15.75ZM15.75 22.1667H14.875V25.6667H15.75H16.625V22.1667H15.75ZM19.8333 15.75V14.875C19.0323 14.875 18.3656 14.8739 17.8279 14.9286C17.2755 14.9848 16.7629 15.107 16.3009 15.4157L16.787 16.1432L17.2731 16.8708C17.3997 16.7862 17.591 16.7118 18.005 16.6697C18.4336 16.6261 18.9959 16.625 19.8333 16.625V15.75ZM15.75 19.8333H16.625C16.625 18.9959 16.6261 18.4336 16.6697 18.005C16.7118 17.591 16.7862 17.3997 16.8708 17.2731L16.1432 16.787L15.4157 16.3009C15.107 16.7629 14.9848 17.2755 14.9286 17.8279C14.8739 18.3656 14.875 19.0323 14.875 19.8333H15.75ZM16.787 16.1432L16.3009 15.4157C15.9506 15.6498 15.6498 15.9506 15.4157 16.3009L16.1432 16.787L16.8708 17.2731C16.9772 17.1139 17.1139 16.9772 17.2731 16.8708L16.787 16.1432Z" fill="white"/>
<path d="M26.5404 15.75C26.5404 15.2668 26.1486 14.875 25.6654 14.875C25.1821 14.875 24.7904 15.2668 24.7904 15.75H25.6654H26.5404ZM24.225 25.4891L24.5598 26.2974L24.5598 26.2974L24.225 25.4891ZM25.4878 24.2263L24.6794 23.8914L24.6794 23.8914L25.4878 24.2263ZM19.832 25.6667V26.5417H22.1654V25.6667V24.7917H19.832V25.6667ZM25.6654 19.8333H26.5404V15.75H25.6654H24.7904V19.8333H25.6654ZM22.1654 25.6667V26.5417C22.697 26.5417 23.1395 26.5421 23.5016 26.5174C23.8716 26.4922 24.221 26.4378 24.5598 26.2974L24.225 25.4891L23.8901 24.6807C23.8001 24.7179 23.6633 24.7523 23.3825 24.7715C23.0938 24.7912 22.7209 24.7917 22.1654 24.7917V25.6667ZM25.6654 22.1667H24.7904C24.7904 22.7222 24.7899 23.0951 24.7702 23.3838C24.751 23.6646 24.7166 23.8014 24.6794 23.8914L25.4878 24.2263L26.2961 24.5611C26.4365 24.2223 26.4909 23.8729 26.5161 23.5029C26.5408 23.1408 26.5404 22.6983 26.5404 22.1667H25.6654ZM24.225 25.4891L24.5598 26.2974C25.3459 25.9718 25.9705 25.3472 26.2961 24.5611L25.4878 24.2263L24.6794 23.8914C24.5313 24.2487 24.2474 24.5326 23.8901 24.6807L24.225 25.4891Z" fill="white"/>
<path d="M2.33203 8.28301C2.33203 5.99161 2.33203 4.84591 2.84779 4.00426C3.13639 3.53332 3.53234 3.13736 4.00329 2.84877C4.84493 2.33301 5.99063 2.33301 8.28203 2.33301C9.80963 2.33301 10.5734 2.33301 11.1345 2.67685C11.4485 2.86924 11.7125 3.13322 11.9049 3.44718C12.2487 4.00827 12.2487 4.77207 12.2487 6.29967V7.58301C12.2487 9.7829 12.2487 10.8828 11.5653 11.5663C10.8819 12.2497 9.78192 12.2497 7.58203 12.2497H6.2987C4.7711 12.2497 4.0073 12.2497 3.4462 11.9058C3.13224 11.7134 2.86827 11.4495 2.67587 11.1355C2.33203 10.5744 2.33203 9.81061 2.33203 8.28301Z" stroke="white" stroke-width="1.75"/>
<path d="M5.83203 7.29134C5.83203 6.69003 5.83203 6.38938 5.98266 6.17709C6.03581 6.10219 6.10121 6.03678 6.17612 5.98363C6.3884 5.83301 6.68906 5.83301 7.29036 5.83301C7.89167 5.83301 8.19233 5.83301 8.40461 5.98363C8.47952 6.03678 8.54492 6.10219 8.59807 6.17709C8.7487 6.38938 8.7487 6.69003 8.7487 7.29134C8.7487 7.89265 8.7487 8.1933 8.59807 8.40559C8.54492 8.4805 8.47952 8.5459 8.40461 8.59905C8.19233 8.74967 7.89167 8.74967 7.29036 8.74967C6.68906 8.74967 6.3884 8.74967 6.17612 8.59905C6.10121 8.5459 6.03581 8.4805 5.98266 8.40559C5.83203 8.1933 5.83203 7.89265 5.83203 7.29134Z" fill="white"/>
<path d="M5.83203 20.7083C5.83203 20.107 5.83203 19.8064 5.98266 19.5941C6.03581 19.5192 6.10121 19.4538 6.17612 19.4006C6.3884 19.25 6.68906 19.25 7.29036 19.25C7.89167 19.25 8.19233 19.25 8.40461 19.4006C8.47952 19.4538 8.54492 19.5192 8.59807 19.5941C8.7487 19.8064 8.7487 20.107 8.7487 20.7083C8.7487 21.3096 8.7487 21.6103 8.59807 21.8226C8.54492 21.8975 8.47952 21.9629 8.40461 22.016C8.19233 22.1667 7.89167 22.1667 7.29036 22.1667C6.68906 22.1667 6.3884 22.1667 6.17612 22.016C6.10121 21.9629 6.03581 21.8975 5.98266 21.8226C5.83203 21.6103 5.83203 21.3096 5.83203 20.7083Z" fill="white"/>
<path d="M18.668 20.7087C18.668 19.8894 18.668 19.4798 18.8646 19.1855C18.9497 19.0581 19.0591 18.9487 19.1865 18.8636C19.4807 18.667 19.8904 18.667 20.7096 18.667C21.5289 18.667 21.9385 18.667 22.2328 18.8636C22.3602 18.9487 22.4696 19.0581 22.5547 19.1855C22.7513 19.4798 22.7513 19.8894 22.7513 20.7087C22.7513 21.5279 22.7513 21.9376 22.5547 22.2318C22.4696 22.3592 22.3602 22.4686 22.2328 22.5537C21.9385 22.7503 21.5289 22.7503 20.7096 22.7503C19.8904 22.7503 19.4807 22.7503 19.1865 22.5537C19.0591 22.4686 18.9497 22.3592 18.8646 22.2318C18.668 21.9376 18.668 21.5279 18.668 20.7087Z" fill="white"/>
</svg>
