<svg width="18" height="18" viewBox="0 0 18 18" fill="none" xmlns="http://www.w3.org/2000/svg">
<rect width="18" height="18" rx="9" fill="#F19920"/>
<path d="M9.36927 3.25932C9.79222 3.89025 9.75088 4.61404 9.50092 5.05608C9.41506 5.20936 9.24651 5.71054 9.52636 6.0012C9.72289 6.2041 10.5109 6.10933 10.0301 5.30158C9.79413 4.90471 10.6591 4.34755 9.83929 3.43677C10.9886 3.86863 10.4651 4.93969 10.8035 5.33402C11.1571 5.74616 11.112 6.35928 10.9746 6.7498C10.8765 7.03998 10.7095 7.30207 10.488 7.51364C10.2664 7.7252 9.99693 7.87993 9.70254 7.9646C9.30101 8.07216 8.88049 8.08846 8.47184 8.0123C7.70862 7.87301 7.06624 7.33748 6.94539 6.15321C6.84045 5.48412 7.29648 5.14194 7.27803 4.76478C7.2475 4.08424 8.20789 3.49846 8.20789 3.49846C7.46184 4.38889 8.05906 4.79404 8.01709 5.203C7.98974 5.4784 7.66918 5.91025 8.17355 6.02983C8.56216 6.12268 8.87317 5.51719 8.52654 5.10505C8.23969 4.76414 8.4464 4.29349 8.72625 3.86481C9.20645 3.13212 8.12012 2.54125 9.43541 2C9.43541 2 8.7606 2.35045 9.36927 3.25932Z" fill="white"/>
<path d="M13.1558 6.79181C13.1331 6.78048 13.1071 6.77737 13.0823 6.78303C13.0575 6.78869 13.0354 6.80276 13.0198 6.82284C13.0042 6.84293 12.9961 6.8678 12.9968 6.89321C12.9974 6.91863 13.0069 6.94303 13.0235 6.96227C13.1554 7.09311 13.2328 7.26896 13.2404 7.45455C13.2404 8.31317 11.3412 9.00898 8.99879 9.00898C6.65632 9.00898 4.75717 8.31317 4.75717 7.45455C4.76449 7.2689 4.84201 7.09296 4.97405 6.96227C4.99068 6.94303 5.00013 6.91863 5.0008 6.89321C5.00148 6.8678 4.99332 6.84293 4.97774 6.82284C4.96215 6.80276 4.94008 6.78869 4.91529 6.78303C4.8905 6.77737 4.86452 6.78048 4.84176 6.79181C4.21718 7.11428 3.84766 7.51115 3.84766 7.9411C3.84766 8.87478 5.58908 9.8886 7.91119 10.1386C8.05053 10.153 8.1796 10.2185 8.27354 10.3224C8.36749 10.4263 8.41965 10.5613 8.42001 10.7014V15.9842C8.61081 15.9944 8.80162 16.0001 8.99879 16.0001C9.19595 16.0001 9.38739 15.9944 9.57756 15.9842V10.7014C9.57792 10.5613 9.63009 10.4263 9.72403 10.3224C9.81797 10.2185 9.94704 10.153 10.0864 10.1386C12.4091 9.8886 14.1506 8.87478 14.1506 7.9411C14.1493 7.51115 13.7804 7.11428 13.1558 6.79181Z" fill="white"/>
<path d="M14.1479 10.4769C14.1479 10.1182 13.8903 9.78175 13.4413 9.49299C13.4077 9.47136 13.368 9.46132 13.3282 9.46442C13.2884 9.46751 13.2507 9.48356 13.2209 9.51012C13.1911 9.53668 13.1709 9.57227 13.1632 9.61145C13.1556 9.65063 13.161 9.69124 13.1786 9.72705C13.218 9.80928 13.2386 9.8992 13.239 9.99036C13.239 10.6359 12.1673 11.1893 10.6403 11.4246C10.506 11.4445 10.3833 11.512 10.2945 11.6147C10.2056 11.7174 10.1566 11.8485 10.1562 11.9843V12.6667C10.5464 12.623 10.9334 12.555 11.3151 12.4632V15.7184C11.5824 15.6514 11.846 15.5707 12.105 15.4767C12.2132 15.4365 12.3064 15.3641 12.3722 15.2692C12.4379 15.1744 12.473 15.0616 12.4726 14.9462V12.0816C13.5024 11.644 14.1479 11.0455 14.1479 10.4769Z" fill="white"/>
<path d="M7.83996 11.9843C7.83958 11.8484 7.79045 11.7172 7.70151 11.6145C7.61257 11.5118 7.48973 11.4444 7.35531 11.4246C5.82886 11.1893 4.75717 10.6359 4.75717 9.99036C4.75761 9.8992 4.77824 9.80928 4.81759 9.72705C4.83522 9.69124 4.84063 9.65063 4.83299 9.61145C4.82535 9.57227 4.80507 9.53668 4.77526 9.51012C4.74546 9.48356 4.70777 9.46751 4.66797 9.46442C4.62818 9.46132 4.58846 9.47136 4.55491 9.49299C4.10524 9.78175 3.84766 10.1182 3.84766 10.4769C3.84766 11.0455 4.49322 11.6434 5.5223 12.081V14.9431C5.52192 15.0585 5.55704 15.1714 5.62291 15.2663C5.68878 15.3611 5.78221 15.4335 5.89055 15.4735C6.14878 15.5681 6.41182 15.649 6.67858 15.7158V12.4632C7.06042 12.5559 7.44765 12.6247 7.83805 12.6693L7.83996 11.9843Z" fill="white"/>
</svg>
