<svg width="36" height="36" viewBox="0 0 36 36" fill="none" xmlns="http://www.w3.org/2000/svg">
<path fill-rule="evenodd" clip-rule="evenodd" d="M4.5 15.625C4.5 10.8286 4.5 8.43042 5.06627 7.62361C5.63255 6.81681 7.88749 6.04494 12.3974 4.50119L13.2566 4.20708C15.6075 3.40236 16.7829 3 18 3C19.2171 3 20.3925 3.40236 22.7434 4.20708L23.6026 4.50119C28.1125 6.04494 30.3675 6.81681 30.9337 7.62361C31.5 8.43042 31.5 10.8286 31.5 15.625V17.987C31.5 26.4442 25.1416 30.5482 21.1522 32.2909C20.07 32.7636 19.5289 33 18 33C16.4711 33 15.93 32.7636 14.8478 32.2909C10.8584 30.5482 4.5 26.4442 4.5 17.987V15.625ZM18 10.875C18.6213 10.875 19.125 11.3787 19.125 12V18C19.125 18.6213 18.6213 19.125 18 19.125C17.3787 19.125 16.875 18.6213 16.875 18V12C16.875 11.3787 17.3787 10.875 18 10.875ZM18 24C18.8284 24 19.5 23.3284 19.5 22.5C19.5 21.6716 18.8284 21 18 21C17.1716 21 16.5 21.6716 16.5 22.5C16.5 23.3284 17.1716 24 18 24Z" fill="#FF0000"/>
</svg>
