<svg width="25" height="24" viewBox="0 0 25 24" fill="none" xmlns="http://www.w3.org/2000/svg">
<g clip-path="url(#clip0_8433_17242)">
<path d="M1.75 9.41043V4.35622C1.75013 4.10692 1.81967 3.86258 1.95082 3.65056C2.08196 3.43854 2.26955 3.26722 2.49256 3.15578L6.52088 1.14162C6.70726 1.04848 6.91275 1 7.1211 1C7.32945 1 7.53495 1.04848 7.72132 1.14162L11.7496 3.15578C11.9727 3.26722 12.1602 3.43854 12.2914 3.65056C12.4225 3.86258 12.4921 4.10692 12.4922 4.35622V9.41043C12.4923 9.65996 12.4229 9.90459 12.2917 10.1169C12.1606 10.3291 11.9729 10.5007 11.7496 10.6122L7.72132 12.6264C7.53495 12.7195 7.32945 12.768 7.1211 12.768C6.91275 12.768 6.70726 12.7195 6.52088 12.6264L2.49256 10.6122C2.26934 10.5007 2.08162 10.3291 1.95046 10.1169C1.8193 9.90459 1.74988 9.65996 1.75 9.41043ZM3.14649 4.60866C3.07726 4.77266 3.076 4.95744 3.14298 5.12237C3.20996 5.2873 3.3397 5.41888 3.50367 5.48818L6.44971 6.73159V10.2403C6.44971 10.4183 6.52045 10.5891 6.64636 10.715C6.77227 10.8409 6.94304 10.9117 7.1211 10.9117C7.29917 10.9117 7.46994 10.8409 7.59585 10.715C7.72175 10.5891 7.79249 10.4183 7.79249 10.2403V6.73159L10.7385 5.48818C10.8989 5.41648 11.0247 5.2848 11.0891 5.1214C11.1535 4.95799 11.1512 4.77586 11.0829 4.61407C11.0146 4.45228 10.8856 4.32371 10.7235 4.25593C10.5615 4.18815 10.3794 4.18655 10.2162 4.25149L7.1211 5.55801L4.02466 4.25149C3.86066 4.18226 3.67588 4.181 3.51095 4.24798C3.34602 4.31496 3.21578 4.44469 3.14649 4.60866ZM2.47644 17.9612V12.1067L3.81922 12.7781V17.9612C3.81922 18.5185 4.27039 18.9683 4.8263 18.9683H5.17408C5.32817 18.2094 5.73988 17.5272 6.33943 17.0371C6.93899 16.5471 7.68953 16.2794 8.46388 16.2794C9.23823 16.2794 9.98877 16.5471 10.5883 17.0371C11.1879 17.5272 11.5996 18.2094 11.7537 18.9683H13.2307C13.3188 18.5362 13.4912 18.1258 13.7379 17.7603C13.9847 17.3949 14.301 17.0816 14.6689 16.8385C15.0367 16.5953 15.4489 16.427 15.8818 16.3432C16.3147 16.2594 16.7599 16.2616 17.1919 16.3499V5.20486C17.1919 4.93776 17.0858 4.68161 16.897 4.49274C16.7081 4.30388 16.4519 4.19777 16.1848 4.19777H13.8296C13.8013 3.71762 13.6446 3.25387 13.3758 2.855H16.1848C17.482 2.855 18.5347 3.90773 18.5347 5.20486V6.88333H19.7177C20.0919 6.88334 20.4588 6.98762 20.7771 7.18448C21.0954 7.38134 21.3525 7.66299 21.5197 7.99783L23.6923 12.3417C23.8319 12.6223 23.9058 12.9298 23.9058 13.2427V18.2969C23.9058 18.8311 23.6936 19.3434 23.3159 19.7211C22.9381 20.0989 22.4258 20.3111 21.8916 20.3111H19.8103C19.6562 21.0699 19.2445 21.7522 18.645 22.2422C18.0454 22.7323 17.2949 23 16.5205 23C15.7462 23 14.9956 22.7323 14.3961 22.2422C13.7965 21.7522 13.3848 21.0699 13.2307 20.3111H11.7537C11.5996 21.0699 11.1879 21.7522 10.5883 22.2422C9.98877 22.7323 9.23823 23 8.46388 23C7.68953 23 6.93899 22.7323 6.33943 22.2422C5.73988 21.7522 5.32817 21.0699 5.17408 20.3111H4.8263C4.20308 20.3111 3.60538 20.0635 3.1647 19.6228C2.72402 19.1821 2.47644 18.5844 2.47644 17.9612ZM19.8103 18.9683H21.8916C22.0697 18.9683 22.2405 18.8976 22.3664 18.7717C22.4923 18.6458 22.563 18.475 22.563 18.2969V13.5972H18.5347V16.9541C19.1792 17.4375 19.6452 18.1492 19.8103 18.9683ZM22.1494 12.2544L20.3206 8.59805C20.265 8.48642 20.1793 8.39249 20.0733 8.3268C19.9673 8.2611 19.8451 8.22623 19.7204 8.2261H18.5347V12.2544H22.1494ZM6.44971 19.6397C6.44971 20.1739 6.66192 20.6862 7.03965 21.0639C7.41738 21.4417 7.92969 21.6539 8.46388 21.6539C8.99807 21.6539 9.51038 21.4417 9.88811 21.0639C10.2658 20.6862 10.478 20.1739 10.478 19.6397C10.478 19.1055 10.2658 18.5932 9.88811 18.2155C9.51038 17.8377 8.99807 17.6255 8.46388 17.6255C7.92969 17.6255 7.41738 17.8377 7.03965 18.2155C6.66192 18.5932 6.44971 19.1055 6.44971 19.6397ZM16.5205 21.6539C17.0547 21.6539 17.567 21.4417 17.9448 21.0639C18.3225 20.6862 18.5347 20.1739 18.5347 19.6397C18.5347 19.1055 18.3225 18.5932 17.9448 18.2155C17.567 17.8377 17.0547 17.6255 16.5205 17.6255C15.9863 17.6255 15.474 17.8377 15.0963 18.2155C14.7186 18.5932 14.5064 19.1055 14.5064 19.6397C14.5064 20.1739 14.7186 20.6862 15.0963 21.0639C15.474 21.4417 15.9863 21.6539 16.5205 21.6539Z" fill="#454545"/>
</g>
<defs>
<clipPath id="clip0_8433_17242">
<rect width="24" height="24" fill="white" transform="translate(0.75)"/>
</clipPath>
</defs>
</svg>
