<svg width="25" height="24" viewBox="0 0 25 24" fill="none" xmlns="http://www.w3.org/2000/svg">
<g clip-path="url(#clip0_8433_15814)">
<path d="M2.47778 12.1054V17.9612C2.47778 19.2583 3.53052 20.3111 4.82764 20.3111H5.17408C5.32817 21.0699 5.73988 21.7522 6.33943 22.2422C6.93899 22.7323 7.68953 23 8.46388 23C9.23823 23 9.98877 22.7323 10.5883 22.2422C11.1879 21.7522 11.5996 21.0699 11.7537 20.3111H13.2307C13.3848 21.0699 13.7965 21.7522 14.3961 22.2422C14.9956 22.7323 15.7462 23 16.5205 23C17.2949 23 18.0454 22.7323 18.645 22.2422C19.2445 21.7522 19.6562 21.0699 19.8103 20.3111H21.8916C22.4258 20.3111 22.9381 20.0989 23.3159 19.7211C23.6936 19.3434 23.9058 18.8311 23.9058 18.2969V13.2427C23.9058 12.9304 23.8331 12.6224 23.6936 12.3431L21.521 7.99649C21.3537 7.66189 21.0964 7.38052 20.7782 7.18391C20.4599 6.9873 20.0931 6.88321 19.719 6.88333H18.5347V5.20486C18.5347 4.58164 18.2871 3.98394 17.8464 3.54326C17.4058 3.10257 16.8081 2.855 16.1848 2.855H13.3784C13.6712 3.29006 13.8363 3.81106 13.8363 4.35622V9.41043C13.8364 9.90912 13.6977 10.398 13.4356 10.8223C13.1736 11.2466 12.7985 11.5895 12.3526 11.8127L8.32423 13.8268C7.9513 14.0133 7.54007 14.1104 7.12312 14.1104C6.70616 14.1104 6.29493 14.0133 5.922 13.8268L2.47778 12.1054ZM18.5347 8.2261H19.719C19.8438 8.22586 19.9662 8.26041 20.0725 8.32587C20.1788 8.39134 20.2647 8.48512 20.3206 8.59671L22.1494 12.2544H18.5347V8.2261ZM8.46388 17.6255C8.99807 17.6255 9.51038 17.8377 9.88811 18.2155C10.2658 18.5932 10.478 19.1055 10.478 19.6397C10.478 20.1739 10.2658 20.6862 9.88811 21.0639C9.51038 21.4417 8.99807 21.6539 8.46388 21.6539C7.92969 21.6539 7.41738 21.4417 7.03965 21.0639C6.66192 20.6862 6.44971 20.1739 6.44971 19.6397C6.44971 19.1055 6.66192 18.5932 7.03965 18.2155C7.41738 17.8377 7.92969 17.6255 8.46388 17.6255ZM14.5064 19.6397C14.5064 19.3752 14.5585 19.1133 14.6597 18.8689C14.7609 18.6245 14.9093 18.4025 15.0963 18.2155C15.2833 18.0284 15.5054 17.8801 15.7497 17.7789C15.9941 17.6776 16.256 17.6255 16.5205 17.6255C16.785 17.6255 17.0469 17.6776 17.2913 17.7789C17.5357 17.8801 17.7577 18.0284 17.9448 18.2155C18.1318 18.4025 18.2802 18.6245 18.3814 18.8689C18.4826 19.1133 18.5347 19.3752 18.5347 19.6397C18.5347 20.1739 18.3225 20.6862 17.9448 21.0639C17.567 21.4417 17.0547 21.6539 16.5205 21.6539C15.9863 21.6539 15.474 21.4417 15.0963 21.0639C14.7186 20.6862 14.5064 20.1739 14.5064 19.6397ZM1.75 4.35622V9.41043C1.74988 9.65996 1.8193 9.90459 1.95046 10.1169C2.08162 10.3291 2.26934 10.5007 2.49256 10.6122L6.52088 12.6264C6.70726 12.7195 6.91275 12.768 7.1211 12.768C7.32945 12.768 7.53495 12.7195 7.72132 12.6264L11.7496 10.6122C11.9729 10.5007 12.1606 10.3291 12.2917 10.1169C12.4229 9.90459 12.4923 9.65996 12.4922 9.41043V4.35622C12.4921 4.10692 12.4225 3.86258 12.2914 3.65056C12.1602 3.43854 11.9727 3.26722 11.7496 3.15578L7.72132 1.14162C7.53495 1.04848 7.32945 1 7.1211 1C6.91275 1 6.70726 1.04848 6.52088 1.14162L2.49256 3.15578C2.26955 3.26722 2.08196 3.43854 1.95082 3.65056C1.81967 3.86258 1.75013 4.10692 1.75 4.35622ZM4.02466 4.25149L7.1211 5.55801L10.2175 4.25149C10.3791 4.19363 10.5568 4.19987 10.7139 4.2689C10.871 4.33794 10.9958 4.46454 11.0625 4.62269C11.1292 4.78084 11.1328 4.95852 11.0725 5.11924C11.0123 5.27996 10.8928 5.4115 10.7385 5.48684L7.79249 6.73293V10.2403C7.79249 10.4183 7.72175 10.5891 7.59585 10.715C7.46994 10.8409 7.29917 10.9117 7.1211 10.9117C6.94304 10.9117 6.77227 10.8409 6.64636 10.715C6.52045 10.5891 6.44971 10.4183 6.44971 10.2403V6.73159L3.50367 5.48818C3.41943 5.4561 3.34251 5.40739 3.27751 5.34495C3.2125 5.28251 3.16073 5.20762 3.12529 5.12474C3.08985 5.04186 3.07145 4.9527 3.07121 4.86256C3.07097 4.77242 3.08888 4.68316 3.12387 4.60009C3.15887 4.51702 3.21023 4.44185 3.2749 4.37906C3.33957 4.31627 3.41622 4.26714 3.50028 4.23461C3.58434 4.20208 3.6741 4.18681 3.76419 4.18971C3.85428 4.19261 3.94286 4.21362 4.02466 4.25149Z" fill="#F19920"/>
</g>
<defs>
<clipPath id="clip0_8433_15814">
<rect width="24" height="24" fill="white" transform="translate(0.75)"/>
</clipPath>
</defs>
</svg>
