<svg width="123" height="36" viewBox="0 0 123 36" fill="none" xmlns="http://www.w3.org/2000/svg">
<path d="M31.4023 26.1356H33.6935V33.0091H35.777V26.1356H38.0682V24.2598H31.4023V26.1356Z" fill="black"/>
<path d="M44.7973 24.2598L42.8708 27.5927L40.9443 24.2598H38.4961L41.829 29.4685V33.0091H43.9125V29.4685L47.2455 24.2598H44.7973Z" fill="black"/>
<path d="M48.518 29.9484C48.518 30.4553 48.4395 30.8462 48.0748 31.0817C47.7886 31.2632 47.2571 31.2763 46.8516 31.2371V33.1178C47.4835 33.2245 48.1307 33.1983 48.7519 33.0409C50.3529 32.5977 50.5999 31.309 50.5999 29.4741V26.1346H53.1004V33.0033H55.1839V24.2539H48.518V29.9484Z" fill="black"/>
<path d="M64.93 31.135H62.8465V24.2598H60.763V31.135H58.6812V24.2598H56.5977V33.0091H67.0135V24.2598H64.93V31.135Z" fill="black"/>
<path d="M80.7595 24.2598H78.3505L76.4894 27.0203L74.6284 24.2598H72.2194L75.1353 28.4268L72.0117 33.0091H74.5106L76.4894 30.0016L78.4683 33.0091H80.9672L77.8436 28.4268L80.7595 24.2598Z" fill="black"/>
<path d="M90.1556 24.2598H87.7467L85.8856 27.0203L84.0229 24.2598H81.6156L84.5315 28.4268L81.4062 33.0091H83.9068L85.8856 30.0016L87.8644 33.0091H90.3633L87.2397 28.4268L90.1556 24.2598Z" fill="black"/>
<path d="M98.3687 24.2598H95.8682L93.1616 27.5927V24.2598H91.0781V33.0091H93.1616V29.2592L96.0775 33.0091H98.5764L95.0358 28.4268L98.3687 24.2598Z" fill="black"/>
<path d="M33.6935 21.3073H35.777V14.4337H38.0682V12.5596H31.4023V14.4337H33.6935V21.3073Z" fill="black"/>
<path d="M39.5295 21.3073L40.0757 19.8502H43.5656L44.1119 21.3073H46.4014L42.7823 12.5596H40.8574L37.2383 21.3073H39.5295ZM41.819 15.2678L42.8477 17.9744H40.792L41.819 15.2678Z" fill="black"/>
<path d="M54.1096 18.6776C54.1096 17.8059 53.655 17.0422 52.6378 16.7151C53.2494 16.4289 53.6926 15.5965 53.6926 14.854C53.6926 13.2186 52.3646 12.5645 50.3596 12.5645H47.0234V21.3122H51.1119C52.991 21.3073 54.1096 20.1887 54.1096 18.6776ZM49.1118 14.4337H50.3613C51.1545 14.4337 51.6107 14.6169 51.6107 15.15C51.6107 15.657 51.1545 15.8925 50.3613 15.8925H49.1118V14.4337ZM49.1118 19.4331V17.7667H50.569C51.4537 17.7667 52.0278 18.0136 52.0278 18.5844C52.0278 19.1551 51.4537 19.4299 50.569 19.4299L49.1118 19.4331Z" fill="black"/>
<path d="M60.4546 19.8502L61.0025 21.3073H63.292L59.6729 12.5596H57.748L54.1289 21.3073H56.4185L56.9647 19.8502H60.4546ZM58.7113 15.2711L59.7383 17.9776H57.6826L58.7113 15.2711Z" fill="black"/>
<path d="M69.3383 15.9972H66.0054V12.5596H63.9219V21.3073H66.0054V17.8713H69.3383V21.3073H71.4218V12.5596H69.3383V15.9972Z" fill="black"/>
<path d="M74.5217 21.3073H76.6052V14.4337H78.8964V12.5596H72.2305V14.4337H74.5217V21.3073Z" fill="black"/>
<path d="M83.8355 21.5157C86.426 21.5157 88.5225 19.4583 88.5225 16.9365C88.5225 14.4148 86.426 12.3574 83.8355 12.3574C81.245 12.3574 79.1484 14.4148 79.1484 16.9365C79.1484 19.4583 81.245 21.5157 83.8355 21.5157ZM83.8355 14.225C85.2665 14.225 86.439 15.4352 86.439 16.9333C86.439 18.4313 85.2665 19.6398 83.8355 19.6398C82.4045 19.6398 81.2319 18.4297 81.2319 16.9333C81.2319 15.4369 82.4029 14.225 83.8355 14.225Z" fill="black"/>
<path d="M92.5898 17.7667V14.4337H95.0887V21.3024H97.1722V12.5596H90.5063V18.2491C90.5063 18.7561 90.4294 19.147 90.0648 19.3808C89.7769 19.564 89.2471 19.5771 88.8398 19.5444V21.4185C89.4724 21.5255 90.1203 21.4988 90.7418 21.34C92.3429 20.8919 92.5898 19.6016 92.5898 17.7667Z" fill="black"/>
<path d="M98.5859 21.3073H100.669V14.4337H104.21V12.5596H98.5859V21.3073Z" fill="black"/>
<path d="M109.154 12.3486C106.564 12.3486 104.469 14.406 104.469 16.9277C104.469 19.4495 106.564 21.5069 109.154 21.5069C111.745 21.5069 113.841 19.4495 113.841 16.9277C113.841 14.406 111.746 12.3486 109.154 12.3486ZM109.154 19.6392C107.723 19.6392 106.551 18.429 106.551 16.9327C106.551 15.4363 107.723 14.2244 109.154 14.2244C110.585 14.2244 111.758 15.4346 111.758 16.9327C111.758 18.4307 110.587 19.6409 109.154 19.6409V19.6392Z" fill="black"/>
<path d="M118.816 11.7257C119.062 11.7268 119.306 11.6791 119.534 11.5853C119.762 11.4915 119.969 11.3535 120.143 11.1792C120.317 11.005 120.455 10.7979 120.549 10.5701C120.643 10.3422 120.691 10.098 120.69 9.85156H119.648C119.648 9.96088 119.626 10.0691 119.585 10.1701C119.543 10.2711 119.482 10.3629 119.404 10.4402C119.327 10.5175 119.235 10.5788 119.134 10.6206C119.033 10.6624 118.925 10.684 118.816 10.684C118.706 10.684 118.598 10.6624 118.497 10.6206C118.396 10.5788 118.304 10.5175 118.227 10.4402C118.15 10.3629 118.088 10.2711 118.047 10.1701C118.005 10.0691 117.983 9.96088 117.983 9.85156H116.941C116.94 10.098 116.988 10.3422 117.082 10.5701C117.176 10.7979 117.314 11.005 117.488 11.1792C117.662 11.3535 117.869 11.4915 118.097 11.5853C118.325 11.6791 118.569 11.7268 118.816 11.7257Z" fill="black"/>
<path d="M120.791 12.5596L116.833 17.976V12.5596H114.75V21.3073H116.833L120.791 15.8925V21.3073H122.875V12.5596H120.791Z" fill="black"/>
<path d="M14.2065 3.23809C15.294 4.8604 15.1877 6.72149 14.545 7.85809C14.3242 8.25222 13.8908 9.54091 14.6104 10.2883C15.1158 10.81 17.142 10.5663 15.9057 8.48935C15.2989 7.46886 17.5231 6.03625 15.415 3.69436C18.3702 4.8048 17.0243 7.55881 17.8943 8.57276C18.8036 9.63249 18.6875 11.209 18.3342 12.2132C18.0819 12.9593 17.6526 13.6332 17.083 14.1772C16.5133 14.7212 15.8204 15.1191 15.0634 15.3368C14.031 15.6133 12.9497 15.6553 11.8989 15.4594C9.93645 15.1013 8.2847 13.7243 7.97398 10.6792C7.70414 8.95871 8.87672 8.07887 8.82929 7.10908C8.75079 5.3592 11.2202 3.853 11.2202 3.853C9.30192 6.14256 10.8376 7.1843 10.7296 8.23586C10.6593 8.94399 9.83506 10.0544 11.1319 10.3619C12.1312 10.6006 12.9309 9.04375 12.0396 7.98401C11.302 7.10744 11.8335 5.89724 12.5531 4.79499C13.7878 2.91101 10.9946 1.39172 14.3766 0C14.3766 0 12.6414 0.901104 14.2065 3.23809Z" fill="#F19920"/>
<path d="M23.934 12.3207C23.8755 12.2915 23.8087 12.2836 23.745 12.2981C23.6812 12.3127 23.6245 12.3488 23.5844 12.4005C23.5443 12.4521 23.5234 12.5161 23.5251 12.5814C23.5268 12.6468 23.5511 12.7095 23.5939 12.759C23.9329 13.0954 24.1321 13.5476 24.1516 14.0248C24.1516 16.2326 19.2683 18.0217 13.2451 18.0217C7.22192 18.0217 2.33862 16.2326 2.33862 14.0248C2.35746 13.5474 2.55677 13.095 2.89629 12.759C2.93905 12.7095 2.96336 12.6468 2.96509 12.5814C2.96682 12.5161 2.94586 12.4521 2.90577 12.4005C2.86568 12.3488 2.80895 12.3127 2.7452 12.2981C2.68146 12.2836 2.61465 12.2915 2.55613 12.3207C0.950167 13.1498 0 14.1703 0 15.2759C0 17.6766 4.47772 20.2834 10.4486 20.9262C10.8068 20.9633 11.1387 21.1317 11.3803 21.3989C11.6218 21.6661 11.756 22.0133 11.7569 22.3735V35.9571C12.2475 35.9833 12.7381 35.998 13.2451 35.998C13.7521 35.998 14.2443 35.9833 14.7333 35.9571V22.3735C14.7342 22.0133 14.8684 21.6661 15.1099 21.3989C15.3515 21.1317 15.6833 20.9633 16.0416 20.9262C22.0141 20.2834 26.4918 17.6766 26.4918 15.2759C26.4885 14.1703 25.54 13.1498 23.934 12.3207Z" fill="#F19920"/>
<path d="M26.4903 21.7963C26.4903 20.8739 25.828 20.0088 24.6734 19.2663C24.5871 19.2107 24.485 19.1849 24.3827 19.1928C24.2803 19.2008 24.1834 19.2421 24.1068 19.3103C24.0302 19.3786 23.978 19.4701 23.9584 19.5709C23.9387 19.6716 23.9526 19.776 23.998 19.8681C24.0991 20.0796 24.1522 20.3108 24.1533 20.5452C24.1533 22.2051 21.3977 23.6279 17.4711 24.233C17.1258 24.2843 16.8103 24.4577 16.5819 24.7218C16.3536 24.9858 16.2275 25.323 16.2266 25.6722V27.4269C17.2297 27.3144 18.2248 27.1396 19.2063 26.9036V35.2736C19.8935 35.1014 20.5715 34.894 21.2374 34.6521C21.5156 34.5488 21.7553 34.3626 21.9243 34.1187C22.0934 33.8748 22.1835 33.5849 22.1827 33.2882V25.9224C24.8304 24.7972 26.4903 23.2583 26.4903 21.7963Z" fill="#F19920"/>
<path d="M10.2654 25.6722C10.2644 25.3228 10.1381 24.9854 9.90942 24.7213C9.68073 24.4572 9.36485 24.2839 9.01922 24.233C5.09426 23.6279 2.33862 22.2051 2.33862 20.5452C2.33975 20.3108 2.39281 20.0796 2.49398 19.8681C2.53933 19.776 2.55324 19.6716 2.53358 19.5709C2.51393 19.4701 2.46179 19.3786 2.38516 19.3103C2.30852 19.2421 2.21162 19.2008 2.10928 19.1928C2.00695 19.1849 1.90483 19.2107 1.81856 19.2663C0.662336 20.0088 0 20.8739 0 21.7963C0 23.2583 1.65993 24.7956 4.306 25.9207V33.28C4.30504 33.577 4.39535 33.8671 4.56471 34.1111C4.73408 34.355 4.97431 34.541 5.2529 34.6439C5.91687 34.8872 6.59324 35.0952 7.27916 35.267V26.9036C8.26096 27.142 9.25667 27.319 10.2605 27.4335L10.2654 25.6722Z" fill="#F19920"/>
</svg>
