<svg width="13" height="17" viewBox="0 0 13 17" fill="none" xmlns="http://www.w3.org/2000/svg">
<path d="M6.7081 1.529C7.22163 2.29504 7.17143 3.17383 6.86795 3.71053C6.7637 3.89663 6.55906 4.50514 6.89884 4.85805C7.13746 5.10439 8.09424 4.98933 7.51044 4.0086C7.22394 3.52674 8.27417 2.85027 7.27877 1.74445C8.67418 2.26879 8.03864 3.56921 8.44946 4.04799C8.87882 4.54839 8.82399 5.29281 8.65719 5.76695C8.53805 6.11928 8.33533 6.43749 8.06635 6.69436C7.79738 6.95123 7.47018 7.1391 7.11275 7.2419C6.62523 7.3725 6.11466 7.39229 5.61849 7.29982C4.69183 7.1307 3.91188 6.48049 3.76516 5.04261C3.63775 4.23023 4.19143 3.81478 4.16903 3.35685C4.13197 2.53057 5.29802 1.81936 5.29802 1.81936C4.39221 2.90047 5.11732 3.39237 5.06636 3.88891C5.03315 4.22328 4.64395 4.74762 5.25632 4.8928C5.72815 5.00554 6.10577 4.27039 5.68491 3.76999C5.33663 3.35608 5.58761 2.78463 5.92738 2.26415C6.51041 1.37455 5.19146 0.657161 6.78841 0C6.78841 0 5.96908 0.425494 6.7081 1.529Z" fill="#F19920"/>
<path d="M11.3015 5.81772C11.2738 5.80396 11.2423 5.80019 11.2122 5.80706C11.1821 5.81393 11.1553 5.83101 11.1364 5.8554C11.1174 5.87978 11.1075 5.90998 11.1084 5.94084C11.1092 5.9717 11.1207 6.00132 11.1408 6.02468C11.3009 6.18354 11.395 6.39705 11.4042 6.62238C11.4042 7.66488 9.09832 8.50969 6.25423 8.50969C3.41013 8.50969 1.10428 7.66488 1.10428 6.62238C1.11317 6.39698 1.20729 6.18336 1.3676 6.02468C1.3878 6.00132 1.39928 5.9717 1.40009 5.94084C1.40091 5.90998 1.39101 5.87978 1.37208 5.8554C1.35315 5.83101 1.32636 5.81393 1.29626 5.80706C1.26617 5.80019 1.23462 5.80396 1.20698 5.81772C0.448661 6.20924 0 6.69111 0 7.21313C0 8.34675 2.11434 9.57767 4.93373 9.88116C5.10291 9.8987 5.25962 9.97821 5.37368 10.1044C5.48773 10.2306 5.55108 10.3945 5.5515 10.5646V16.9786C5.78317 16.991 6.01484 16.998 6.25423 16.998C6.49361 16.998 6.72605 16.991 6.95695 16.9786V10.5646C6.95738 10.3945 7.02072 10.2306 7.13478 10.1044C7.24884 9.97821 7.40554 9.8987 7.57473 9.88116C10.3949 9.57767 12.5092 8.34675 12.5092 7.21313C12.5077 6.69111 12.0598 6.20924 11.3015 5.81772Z" fill="#F19920"/>
<path d="M12.5066 10.2925C12.5066 9.85696 12.1939 9.44845 11.6487 9.09786C11.6079 9.0716 11.5597 9.05941 11.5114 9.06317C11.4631 9.06692 11.4173 9.08641 11.3811 9.11866C11.345 9.1509 11.3203 9.19412 11.3111 9.24169C11.3018 9.28926 11.3083 9.33856 11.3298 9.38204C11.3775 9.48188 11.4026 9.59106 11.4031 9.70174C11.4031 10.4855 10.1019 11.1574 8.24782 11.4431C8.08476 11.4673 7.93578 11.5492 7.82795 11.6739C7.72012 11.7986 7.66059 11.9578 7.66016 12.1227V12.9513C8.13382 12.8981 8.60372 12.8156 9.06714 12.7041V16.6564C9.39167 16.5751 9.71179 16.4771 10.0262 16.3629C10.1576 16.3141 10.2708 16.2262 10.3506 16.111C10.4304 15.9959 10.473 15.859 10.4726 15.7189V12.2408C11.7228 11.7095 12.5066 10.9829 12.5066 10.2925Z" fill="#F19920"/>
<path d="M4.84724 12.1227C4.84678 11.9577 4.78713 11.7984 4.67915 11.6737C4.57116 11.549 4.42201 11.4671 4.2588 11.4431C2.40547 11.1574 1.10428 10.4855 1.10428 9.70174C1.10481 9.59106 1.12987 9.48188 1.17764 9.38204C1.19905 9.33856 1.20562 9.28926 1.19634 9.24169C1.18706 9.19412 1.16244 9.1509 1.12625 9.11866C1.09007 9.08641 1.04431 9.06692 0.995986 9.06317C0.947665 9.05941 0.899445 9.0716 0.858711 9.09786C0.31275 9.44845 0 9.85696 0 10.2925C0 10.9829 0.783805 11.7087 2.03326 12.24V15.715C2.0328 15.8553 2.07545 15.9923 2.15542 16.1074C2.23539 16.2226 2.34883 16.3105 2.48038 16.3591C2.7939 16.4739 3.11327 16.5721 3.43716 16.6533V12.7041C3.90076 12.8167 4.37093 12.9003 4.84492 12.9543L4.84724 12.1227Z" fill="#F19920"/>
</svg>
