<svg width="149" height="152" viewBox="0 0 149 152" fill="none" xmlns="http://www.w3.org/2000/svg">
<g opacity="0.1">
<path d="M79.9022 18.2122C86.0189 27.3367 85.421 37.8042 81.8062 44.1969C80.5644 46.4136 78.1269 53.6617 82.1741 57.8652C85.0163 60.7994 96.4128 59.4289 89.459 47.7473C86.0465 42.0077 98.5559 33.9502 86.6996 20.7785C103.321 27.024 95.7505 42.5136 100.644 48.2164C105.758 54.1768 105.105 63.0438 103.118 68.6914C101.699 72.888 99.2844 76.6783 96.0806 79.7379C92.8769 82.7975 88.9795 85.0353 84.722 86.2598C78.9151 87.8154 72.8335 88.0511 66.9237 86.9496C55.8859 84.9352 46.5959 77.1904 44.8482 60.0636C43.3305 50.3872 49.9256 45.4386 49.6588 39.9841C49.2173 30.1422 63.1064 21.6707 63.1064 21.6707C52.3171 34.5481 60.9541 40.4072 60.347 46.3216C59.9515 50.3044 55.3157 56.5499 62.6097 58.2792C68.2298 59.6221 72.7277 50.8655 67.7147 44.9051C63.5664 39.9749 66.5557 33.1683 70.6029 26.9688C77.5475 16.3726 61.8371 7.82758 80.8588 0C80.8588 0 71.0996 5.06815 79.9022 18.2122Z" fill="#F19920"/>
<path d="M134.614 69.2987C134.285 69.1348 133.909 69.0899 133.551 69.1717C133.192 69.2535 132.873 69.457 132.648 69.7475C132.422 70.038 132.304 70.3976 132.314 70.7652C132.324 71.1328 132.46 71.4857 132.701 71.7638C134.607 73.6561 135.728 76.1992 135.838 78.8832C135.838 91.3006 108.372 101.363 74.4954 101.363C40.6188 101.363 13.1533 91.3006 13.1533 78.8832C13.2592 76.1984 14.3802 73.6539 16.2898 71.7638C16.5303 71.4857 16.6671 71.1328 16.6768 70.7652C16.6865 70.3976 16.5686 70.038 16.3431 69.7475C16.1177 69.457 15.7986 69.2535 15.4401 69.1717C15.0816 69.0899 14.7058 69.1348 14.3766 69.2987C5.3441 73.9622 0 79.7018 0 85.9197C0 99.4225 25.1844 114.084 58.7667 117.699C60.7818 117.908 62.6484 118.855 64.007 120.358C65.3656 121.861 66.12 123.813 66.1251 125.839V202.239C68.8846 202.386 71.644 202.469 74.4954 202.469C77.3468 202.469 80.1154 202.386 82.8657 202.239V125.839C82.8708 123.813 83.6252 121.861 84.9838 120.358C86.3424 118.855 88.209 117.908 90.2242 117.699C123.816 114.084 149 99.4225 149 85.9197C148.982 79.7018 143.647 73.9622 134.614 69.2987Z" fill="#F19920"/>
<path d="M148.993 122.588C148.993 117.4 145.268 112.534 138.774 108.358C138.289 108.045 137.714 107.9 137.139 107.945C136.563 107.99 136.018 108.222 135.587 108.606C135.156 108.99 134.863 109.505 134.752 110.071C134.642 110.638 134.72 111.225 134.975 111.743C135.544 112.932 135.842 114.233 135.849 115.551C135.849 124.887 120.35 132.89 98.2654 136.293C96.3231 136.581 94.5487 137.557 93.2643 139.042C91.9799 140.527 91.2708 142.424 91.2656 144.387V154.257C96.9075 153.624 102.505 152.641 108.025 151.313V198.389C111.89 197.421 115.703 196.254 119.449 194.894C121.013 194.313 122.361 193.265 123.312 191.894C124.263 190.522 124.77 188.892 124.765 187.223V145.794C139.657 139.466 148.993 130.811 148.993 122.588Z" fill="#F19920"/>
<path d="M57.7365 144.387C57.731 142.422 57.0206 140.525 55.7343 139.039C54.4481 137.554 52.6715 136.579 50.7275 136.293C28.6521 132.89 13.1533 124.887 13.1533 115.551C13.1596 114.233 13.4581 112.932 14.0271 111.743C14.2821 111.225 14.3604 110.638 14.2498 110.071C14.1393 109.505 13.8461 108.99 13.415 108.606C12.984 108.222 12.439 107.99 11.8634 107.945C11.2878 107.9 10.7135 108.045 10.2283 108.358C3.72523 112.534 0 117.4 0 122.588C0 130.811 9.33607 139.457 24.2186 145.785V187.177C24.2132 188.847 24.7211 190.479 25.6737 191.851C26.6262 193.223 27.9774 194.269 29.5443 194.848C33.2787 196.216 37.0829 197.386 40.9407 198.352V151.313C46.4628 152.654 52.063 153.649 57.7089 154.294L57.7365 144.387Z" fill="#F19920"/>
</g>
</svg>
